<svg id="visual" viewBox="0 0 900 600" width="900" height="600" xmlns="http://www.w3.org/2000/svg" xmlns:xlink="http://www.w3.org/1999/xlink" version="1.1"><g stroke-width="1" stroke-linejoin="bevel"><path d="M478 221L530 369L620 222Z" fill="#4ca8f3" stroke="#4ca8f3"></path><path d="M530 369L545 377L620 222Z" fill="#4ea9f3" stroke="#4ea9f3"></path><path d="M530 369L562 424L545 377Z" fill="#4ea9f3" stroke="#4ea9f3"></path><path d="M545 377L785 326L620 222Z" fill="#51abf4" stroke="#51abf4"></path><path d="M478 221L351 345L530 369Z" fill="#5fb3f6" stroke="#5fb3f6"></path><path d="M530 369L433 458L562 424Z" fill="#5db1f5" stroke="#5db1f5"></path><path d="M351 345L433 458L530 369Z" fill="#5fb3f6" stroke="#5fb3f6"></path><path d="M562 424L785 326L545 377Z" fill="#51abf4" stroke="#51abf4"></path><path d="M785 326L775 168L620 222Z" fill="#51abf4" stroke="#51abf4"></path><path d="M620 222L566 0L478 221Z" fill="#58aff5" stroke="#58aff5"></path><path d="M351 345L319 390L433 458Z" fill="#62b4f6" stroke="#62b4f6"></path><path d="M775 168L566 0L620 222Z" fill="#4ea9f3" stroke="#4ea9f3"></path><path d="M478 221L262 207L351 345Z" fill="#58aff5" stroke="#58aff5"></path><path d="M351 345L262 207L319 390Z" fill="#51abf4" stroke="#51abf4"></path><path d="M562 424L803 400L785 326Z" fill="#56aef5" stroke="#56aef5"></path><path d="M785 326L900 260L775 168Z" fill="#5ab0f5" stroke="#5ab0f5"></path><path d="M755 600L803 400L562 424Z" fill="#4ca8f3" stroke="#4ca8f3"></path><path d="M367 0L262 207L478 221Z" fill="#62b4f6" stroke="#62b4f6"></path><path d="M518 600L562 424L433 458Z" fill="#4ea9f3" stroke="#4ea9f3"></path><path d="M518 600L563 600L562 424Z" fill="#53acf4" stroke="#53acf4"></path><path d="M320 600L518 600L433 458Z" fill="#64b5f6" stroke="#64b5f6"></path><path d="M566 0L367 0L478 221Z" fill="#53acf4" stroke="#53acf4"></path><path d="M803 400L900 260L785 326Z" fill="#51abf4" stroke="#51abf4"></path><path d="M775 168L807 0L566 0Z" fill="#53acf4" stroke="#53acf4"></path><path d="M900 132L807 0L775 168Z" fill="#62b4f6" stroke="#62b4f6"></path><path d="M900 260L900 132L775 168Z" fill="#5ab0f5" stroke="#5ab0f5"></path><path d="M563 600L755 600L562 424Z" fill="#58aff5" stroke="#58aff5"></path><path d="M803 400L900 464L900 260Z" fill="#5fb3f6" stroke="#5fb3f6"></path><path d="M149 523L320 600L319 390Z" fill="#5fb3f6" stroke="#5fb3f6"></path><path d="M319 390L320 600L433 458Z" fill="#62b4f6" stroke="#62b4f6"></path><path d="M755 600L900 464L803 400Z" fill="#64b5f6" stroke="#64b5f6"></path><path d="M367 0L250 0L262 207Z" fill="#5fb3f6" stroke="#5fb3f6"></path><path d="M900 132L900 0L807 0Z" fill="#5fb3f6" stroke="#5fb3f6"></path><path d="M67 313L149 523L319 390Z" fill="#62b4f6" stroke="#62b4f6"></path><path d="M67 313L319 390L262 207Z" fill="#5db1f5" stroke="#5db1f5"></path><path d="M107 0L82 233L262 207Z" fill="#4ea9f3" stroke="#4ea9f3"></path><path d="M755 600L900 600L900 464Z" fill="#53acf4" stroke="#53acf4"></path><path d="M82 233L67 313L262 207Z" fill="#51abf4" stroke="#51abf4"></path><path d="M149 523L182 600L320 600Z" fill="#4ca8f3" stroke="#4ca8f3"></path><path d="M250 0L107 0L262 207Z" fill="#62b4f6" stroke="#62b4f6"></path><path d="M82 233L0 307L67 313Z" fill="#64b5f6" stroke="#64b5f6"></path><path d="M67 313L0 508L149 523Z" fill="#5ab0f5" stroke="#5ab0f5"></path><path d="M149 523L0 600L182 600Z" fill="#62b4f6" stroke="#62b4f6"></path><path d="M0 113L0 307L82 233Z" fill="#56aef5" stroke="#56aef5"></path><path d="M107 0L0 113L82 233Z" fill="#5fb3f6" stroke="#5fb3f6"></path><path d="M0 307L0 508L67 313Z" fill="#56aef5" stroke="#56aef5"></path><path d="M107 0L0 0L0 113Z" fill="#58aff5" stroke="#58aff5"></path><path d="M0 508L0 600L149 523Z" fill="#4ca8f3" stroke="#4ca8f3"></path></g></svg>