<svg id="visual" viewBox="0 0 450 900" width="450" height="900" xmlns="http://www.w3.org/2000/svg" xmlns:xlink="http://www.w3.org/1999/xlink" version="1.1"><path d="M0 123L18.8 125.8C37.7 128.7 75.3 134.3 112.8 137.8C150.3 141.3 187.7 142.7 225.2 140.7C262.7 138.7 300.3 133.3 337.8 131C375.3 128.7 412.7 129.3 431.3 129.7L450 130L450 0L431.3 0C412.7 0 375.3 0 337.8 0C300.3 0 262.7 0 225.2 0C187.7 0 150.3 0 112.8 0C75.3 0 37.7 0 18.8 0L0 0Z" fill="#F4F3F2" stroke-linecap="round" stroke-linejoin="miter"></path></svg>