<svg id="visual" viewBox="0 0 450 900" width="450" height="900" xmlns="http://www.w3.org/2000/svg" xmlns:xlink="http://www.w3.org/1999/xlink" version="1.1"><path d="M0 150L18.8 146.2C37.7 142.3 75.3 134.7 112.8 130C150.3 125.3 187.7 123.7 225.2 129.2C262.7 134.7 300.3 147.3 337.8 145.8C375.3 144.3 412.7 128.7 431.3 120.8L450 113L450 0L431.3 0C412.7 0 375.3 0 337.8 0C300.3 0 262.7 0 225.2 0C187.7 0 150.3 0 112.8 0C75.3 0 37.7 0 18.8 0L0 0Z" fill="#e3f2fd" stroke-linecap="round" stroke-linejoin="miter"></path></svg>